<svg width="112" height="112" viewBox="0 0 112 112" fill="none" xmlns="http://www.w3.org/2000/svg">
<path d="M54.2141 3.54244C54.9533 2.07622 57.0467 2.07622 57.7859 3.54244L71.8014 31.3432C73.7291 35.1669 76.8331 38.2709 80.6568 40.1986L108.458 54.2141C109.924 54.9533 109.924 57.0467 108.458 57.7859L80.6568 71.8014C76.8331 73.7291 73.7291 76.8331 71.8014 80.6568L57.7859 108.458C57.0467 109.924 54.9533 109.924 54.2141 108.458L40.1986 80.6568C38.2709 76.8331 35.1669 73.7291 31.3432 71.8014L3.54244 57.7859C2.07622 57.0467 2.07622 54.9533 3.54244 54.2141L31.3432 40.1986C35.1669 38.2709 38.2709 35.1669 40.1986 31.3432L54.2141 3.54244Z" fill="#FECE02"/>
</svg>
