<svg width="319" height="332" viewBox="0 0 319 332" fill="none" xmlns="http://www.w3.org/2000/svg">
<path d="M143.324 150.6C131.804 149.996 158.892 8.95279 108.935 22.4209C61.4379 35.2259 120.929 149.426 109.957 148.851C98.9845 148.276 22.6303 137.879 15.7044 172.347C7.96939 210.841 109.569 194.392 112.302 199.525C115.034 204.658 69.5082 261.353 95.3951 280.784C122.214 300.915 161.328 233.689 167.41 234.007C173.492 234.326 198.995 349.152 226.184 319.233C248.279 294.917 201.743 235.807 211.557 236.321C221.371 236.835 294.287 246.414 307.808 209.771C324.332 164.989 196.274 190.874 189.137 181.436C182.001 171.998 254.319 103.027 219.648 81.9333C185.415 61.1055 154.843 151.204 143.324 150.6Z" stroke="black" stroke-width="15" stroke-linecap="round"/>
<path d="M136.015 137.2C124.495 136.596 151.583 -4.4476 101.627 9.02048C54.1293 21.8255 113.621 136.026 102.648 135.451C91.6759 134.876 15.3217 124.478 8.39581 158.946C0.660792 197.441 102.261 180.992 104.993 186.125C107.725 191.258 62.1996 247.952 88.0865 267.384C114.905 287.514 154.02 220.288 160.102 220.607C166.184 220.926 191.687 335.751 218.875 305.832C240.971 281.517 194.434 222.406 204.248 222.921C214.062 223.435 286.978 233.014 300.499 196.371C317.024 151.589 188.965 177.474 181.829 168.035C174.692 158.597 247.01 89.627 212.339 68.5329C178.106 47.7051 147.535 137.803 136.015 137.2Z" fill="#FECE02" stroke="#6735EA" stroke-width="15" stroke-linecap="round"/>
</svg>
