<svg width="56" height="81" viewBox="0 0 56 81" fill="none" xmlns="http://www.w3.org/2000/svg">
<path d="M34.8912 22.258V27.6725C34.8912 30.8213 34.4304 33.4709 33.5088 35.6213C32.5872 37.7717 31.4352 39.6149 30.0528 41.1509C28.5936 42.7637 27.0576 44.1461 25.4448 45.2981C23.832 46.5269 22.3344 47.7557 20.952 48.9845C19.4928 50.2133 18.3024 51.5573 17.3808 53.0165C16.4592 54.4757 15.9984 56.2037 15.9984 58.2005C15.9984 58.9685 16.1136 59.8901 16.344 60.9653C16.5744 62.1173 17.0736 63.2309 17.8416 64.3061C18.6096 65.3813 19.8 66.2645 21.4128 66.9557C23.0256 67.7237 25.2144 68.1077 27.9792 68.1077C30.8208 68.1077 33.1248 67.6853 34.8912 66.8405C36.5808 65.9957 37.848 64.9205 38.6928 63.6149C39.5376 62.3861 40.1136 61.0805 40.4208 59.6981C40.728 58.3925 40.8816 57.2021 40.8816 56.1269C40.8816 55.5893 40.8816 55.0517 40.8816 54.5141C40.8816 54.0533 40.8432 53.5541 40.7664 53.0165H55.0512C55.128 53.4005 55.2432 53.8997 55.3968 54.5141C55.4736 55.2053 55.512 56.0501 55.512 57.0485C55.512 59.6597 55.128 62.1173 54.36 64.4213C53.592 66.8021 52.4784 68.9525 51.0192 70.8725C49.4832 72.8693 47.5632 74.5589 45.2592 75.9413C42.9552 77.4005 40.3056 78.5141 37.3104 79.2821C34.2384 80.1269 30.7824 80.5493 26.9424 80.5493C23.7936 80.5493 20.8752 80.2421 18.1872 79.6277C15.4224 79.0901 13.0032 78.2453 10.9296 77.0933C8.7792 76.0181 6.9744 74.6357 5.5152 72.9461C3.97919 71.3333 2.82719 69.4517 2.05919 67.3013C1.21439 65.1509 0.791995 62.7317 0.791995 60.0437C0.791995 56.5109 1.2912 53.5157 2.2896 51.0581C3.288 48.6005 4.5936 46.4885 6.20639 44.7221C7.81919 43.0325 9.50879 41.4965 11.2752 40.1141C13.0416 38.8085 14.7312 37.5029 16.344 36.1973C17.9568 34.8917 19.2624 33.4325 20.2608 31.8197C21.2592 30.2069 21.7584 28.2485 21.7584 25.9445L21.7584 22.258H34.8912ZM35.5824 0.139648V14.8852H21.0672V0.139648H35.5824Z" fill="#FECE02"/>
</svg>
