<svg width="680" height="189" viewBox="0 0 680 189" fill="none" xmlns="http://www.w3.org/2000/svg">
<path d="M-17.5338 270.612C-17.5338 270.612 37.7231 183.999 95.3594 156.826C171.932 120.725 253.025 221.782 259.307 278.762C265.589 335.741 212.047 352.158 175.871 354.168C139.696 356.177 104.188 318.55 106.566 267.446C108.944 216.343 172.871 108.073 290.067 93.6403C407.264 79.208 475.831 130.621 444.146 204.425C432.542 231.455 413.57 247.866 392.585 259.318C371.601 270.77 322.727 267.921 316.838 220.103C310.95 172.285 391.277 73.6319 476.663 70.6617C553.136 68.0016 634.084 110.081 641.332 168.937C648.579 227.793 592.968 234.641 581.019 236.113C569.07 237.584 535.872 237.002 524.115 194.577C512.359 152.153 517.779 10.5188 702.094 10.6942" stroke="black" stroke-opacity="0.12" stroke-width="20" stroke-linecap="round"/>
</svg>
